<svg xmlns="http://www.w3.org/2000/svg" xmlns:xlink="http://www.w3.org/1999/xlink" width="21" height="21" viewBox="0 0 21 21"><defs><style>.a{fill:#d90000;}.b{fill:#e6e6e6;}.c{fill:#ff241f;}.d{fill:url(#a);}</style><linearGradient id="a" x1="0.5" y1="-0.014" x2="0.5" y2="1.004" gradientUnits="objectBoundingBox"><stop offset="0" stop-color="#fff"/><stop offset="0.635" stop-color="#fdfdfd"/><stop offset="0.863" stop-color="#f6f6f6"/><stop offset="1" stop-color="#ededed"/></linearGradient></defs><g transform="translate(-57.69 -56.709)"><path class="a" d="M57.826,68.89a10.506,10.506,0,0,0,4.928,7.3v-7.3Z"/><path class="a" d="M68.19,56.709a10.554,10.554,0,0,0-1.828.162V57.6a10.973,10.973,0,0,1,1.854-.155c4.916,0,8.107,3.08,8.9,6.688a3.534,3.534,0,0,1,.075,1.149H78.51A10.5,10.5,0,0,0,68.19,56.709Z"/><path class="a" d="M59.314,64.133a8.082,8.082,0,0,1,3.44-5.115v-.794a10.508,10.508,0,0,0-4.884,7.058h1.377A3.888,3.888,0,0,1,59.314,64.133Z"/><path class="a" d="M68.216,69.012c-.624,0-1.246-.015-1.854-.05v8.585A10.49,10.49,0,0,0,78.555,68.89H70.868C70.01,68.974,69.115,69.012,68.216,69.012Z"/><path class="b" d="M70.868,68.89h7.687a10.454,10.454,0,0,0-.044-3.608H77.192C76.945,67.538,74.185,68.564,70.868,68.89Z"/><path class="b" d="M66.362,57.6v-.729a10.433,10.433,0,0,0-3.608,1.353v.794A9.182,9.182,0,0,1,66.362,57.6Z"/><path class="b" d="M59.246,65.282H57.87a10.459,10.459,0,0,0-.044,3.608h4.928v7.3a10.43,10.43,0,0,0,3.608,1.353V68.962C62.685,68.751,59.5,67.829,59.246,65.282Z"/><path class="a" d="M77.192,65.282a3.534,3.534,0,0,0-.075-1.149c-.795-3.608-3.985-6.688-8.9-6.688a10.973,10.973,0,0,0-1.854.155v7.682Z"/><path class="c" d="M77.192,65.282a3.534,3.534,0,0,0-.075-1.149c-.795-3.608-3.985-6.688-8.9-6.688a10.973,10.973,0,0,0-1.854.155v7.682Z"/><path class="a" d="M62.754,59.019a8.082,8.082,0,0,0-3.44,5.115,3.888,3.888,0,0,0-.068,1.149h3.508Z"/><path class="c" d="M62.754,59.019a8.082,8.082,0,0,0-3.44,5.115,3.888,3.888,0,0,0-.068,1.149h3.508Z"/><path class="a" d="M66.362,68.962c.608.035,1.23.05,1.854.05.9,0,1.794-.038,2.652-.122H66.362Z"/><path class="c" d="M66.362,68.962c.608.035,1.23.05,1.854.05.9,0,1.794-.038,2.652-.122H66.362Z"/><path class="b" d="M62.754,65.282H59.246c.254,2.547,3.439,3.469,7.115,3.68V68.89h4.506c3.317-.326,6.077-1.351,6.325-3.608H66.362V57.6a9.182,9.182,0,0,0-3.608,1.418Z"/><path class="d" d="M62.754,65.282H59.246c.254,2.547,3.439,3.469,7.115,3.68V68.89h4.506c3.317-.326,6.077-1.351,6.325-3.608H66.362V57.6a9.182,9.182,0,0,0-3.608,1.418Z"/></g></svg>