<svg xmlns="http://www.w3.org/2000/svg" xmlns:xlink="http://www.w3.org/1999/xlink" width="21" height="21" viewBox="0 0 21 21"><defs><style>.a{fill:#dc241f;}.b{fill:#002294;}.c{fill:#e6e6e6;}.d{fill:#ff241f;}.e{fill:#0022d4;}.f{fill:url(#a);}</style><linearGradient id="a" x1="0.5" x2="0.5" y2="1" gradientUnits="objectBoundingBox"><stop offset="0" stop-color="#fff"/><stop offset="0.635" stop-color="#fdfdfd"/><stop offset="0.863" stop-color="#f6f6f6"/><stop offset="1" stop-color="#ededed"/></linearGradient></defs><g transform="translate(-31.05 -30.579)"><path class="a" d="M45.279,31.263v.919a8.377,8.377,0,0,1,5.1,5.98c.607,2.753-1.82,4.092-5.1,4.61V50.9a10.5,10.5,0,0,0,0-19.632Z"/><path class="b" d="M32.573,38.162A8.213,8.213,0,0,1,37.9,32.087v-.855a10.5,10.5,0,0,0,0,19.694v-8.1C34.521,42.379,31.986,41.108,32.573,38.162Z"/><path class="c" d="M41.475,31.474a10.088,10.088,0,0,1,3.8.708v-.919a10.52,10.52,0,0,0-7.379-.031v.855A10.293,10.293,0,0,1,41.475,31.474Z"/><path class="c" d="M41.475,43.041a27.368,27.368,0,0,1-3.575-.21v8.1a10.518,10.518,0,0,0,7.379-.031V42.772A24.723,24.723,0,0,1,41.475,43.041Z"/><path class="a" d="M50.376,38.162a8.377,8.377,0,0,0-5.1-5.98v10.59C48.556,42.254,50.983,40.916,50.376,38.162Z"/><path class="d" d="M50.376,38.162a8.377,8.377,0,0,0-5.1-5.98v10.59C48.556,42.254,50.983,40.916,50.376,38.162Z"/><path class="b" d="M32.573,38.162c-.588,2.945,1.948,4.217,5.327,4.669V32.087A8.213,8.213,0,0,0,32.573,38.162Z"/><path class="e" d="M32.573,38.162c-.588,2.945,1.948,4.217,5.327,4.669V32.087A8.213,8.213,0,0,0,32.573,38.162Z"/><path class="c" d="M37.9,32.087V42.831a27.368,27.368,0,0,0,3.575.21,24.723,24.723,0,0,0,3.8-.268V32.182a10.088,10.088,0,0,0-3.8-.708A10.293,10.293,0,0,0,37.9,32.087Z"/><path class="f" d="M37.9,32.087V42.831a27.368,27.368,0,0,0,3.575.21,24.723,24.723,0,0,0,3.8-.268V32.182a10.088,10.088,0,0,0-3.8-.708A10.293,10.293,0,0,0,37.9,32.087Z"/></g></svg>