<svg xmlns="http://www.w3.org/2000/svg" xmlns:xlink="http://www.w3.org/1999/xlink" width="21" height="21" viewBox="0 0 21 21"><defs><style>.a{fill:#e6e6e6;}.b{fill:#1a1a5a;}.c{fill:#1a1a5e;}.d{fill:#db0000;}.e{fill:url(#a);}.f{fill:url(#b);}.g{fill:#0022d4;}.h{fill:#ff241f;}</style><linearGradient id="a" x1="0.5" y1="-0.014" x2="0.5" y2="1.591" gradientUnits="objectBoundingBox"><stop offset="0" stop-color="#fff"/><stop offset="0.635" stop-color="#fdfdfd"/><stop offset="0.863" stop-color="#f6f6f6"/><stop offset="1" stop-color="#ededed"/></linearGradient><linearGradient id="b" x1="0.5" y1="-0.03" x2="0.5" y2="1.6" xlink:href="#a"/></defs><g transform="translate(-110.969 -4.858)"><path class="a" d="M124.712,6.114V5.37a10.43,10.43,0,0,0-1.239-.319v.723A9.532,9.532,0,0,1,124.712,6.114Z"/><path class="a" d="M114.978,7.82l-.466-.323a10.547,10.547,0,0,0-1.4,1.509l.524.347A8.165,8.165,0,0,1,114.978,7.82Z"/><path class="a" d="M112.421,12.251a7.927,7.927,0,0,1,.543-1.694l-.612-.4a10.433,10.433,0,0,0-.618,1.271l.3.2h-.379a10.382,10.382,0,0,0-.387,1.247h1.073A4.33,4.33,0,0,1,112.421,12.251Z"/><path class="a" d="M119.817,5.665V4.988a10.458,10.458,0,0,0-1.295.292v.647A10.09,10.09,0,0,1,119.817,5.665Z"/><path class="a" d="M130.223,12.251a3.916,3.916,0,0,1,.087.62h1.36a10.431,10.431,0,0,0-.387-1.247H131.2l.066-.044a10.453,10.453,0,0,0-.962-1.893l-.8.554A8.361,8.361,0,0,1,130.223,12.251Z"/><path class="a" d="M118.551,25.444a10.439,10.439,0,0,0,1.266.284V17.5H111.19a10.42,10.42,0,0,0,.306,1.137h.551l-.45.3a10.422,10.422,0,0,0,.653,1.446c.8-.546,1.615-1.107,2.522-1.732.929.008,1.891-.016,2.8.012-1.585,1.088-3.016,2.073-4.448,3.06a10.544,10.544,0,0,0,1.132,1.257l4.3-2.985Z"/><path class="a" d="M128.636,8.891l.7-.484a10.525,10.525,0,0,0-.779-.795l-.659.457A8.307,8.307,0,0,1,128.636,8.891Z"/><path class="a" d="M123.473,25.665a10.417,10.417,0,0,0,1.211-.31V20l4.125,2.866a10.568,10.568,0,0,0,1.241-1.458c-1.428-.951-2.854-1.9-4.129-2.741.795-.029,1.642,0,2.457-.012.727.476,1.548,1.018,2.392,1.578a10.424,10.424,0,0,0,.626-1.452l-.209-.138h.256a10.446,10.446,0,0,0,.307-1.138q-4.145,0-8.277.014Z"/><path class="b" d="M131.4,18.779c.016-.046.032-.092.047-.138h-.256Z"/><path class="b" d="M131.283,11.623l-.017-.044-.066.044Z"/><path class="c" d="M124.683,25.355a10.5,10.5,0,0,0,4.125-2.49L124.683,20Z"/><path class="b" d="M127.9,8.069l.659-.457a10.489,10.489,0,0,0-3.845-2.242v.743A8.6,8.6,0,0,1,127.9,8.069Z"/><path class="c" d="M118.551,20l-4.3,2.985a10.482,10.482,0,0,0,4.3,2.461Z"/><path class="b" d="M111.5,18.641c.033.1.065.2.1.3l.45-.3Z"/><path class="b" d="M111.734,11.424c-.027.066-.053.132-.079.2h.379Z"/><path class="b" d="M118.522,5.927V5.28A10.478,10.478,0,0,0,114.512,7.5l.466.323A8.789,8.789,0,0,1,118.522,5.927Z"/><path class="d" d="M113.634,9.353l-.524-.347a10.488,10.488,0,0,0-.758,1.147l.612.4A8.022,8.022,0,0,1,113.634,9.353Z"/><path class="d" d="M121.322,5.563a10.75,10.75,0,0,1,2.151.211V5.051a10.508,10.508,0,0,0-3.655-.063v.676A11.111,11.111,0,0,1,121.322,5.563Z"/><path class="d" d="M119.817,17.516v8.211a10.508,10.508,0,0,0,3.655-.063V17.516q4.128-.018,8.277-.014a10.531,10.531,0,0,0-.079-4.632h-1.36c.187,3.259-4.354,4.259-8.988,4.259s-9.16-.85-8.98-4.259h-1.073a10.526,10.526,0,0,0-.079,4.633h8.628Z"/><path class="d" d="M129.5,10.241l.8-.554a10.523,10.523,0,0,0-.968-1.279l-.7.484A8.351,8.351,0,0,1,129.5,10.241Z"/><path class="d" d="M114.772,18.653c-.907.625-1.725,1.186-2.522,1.732a10.5,10.5,0,0,0,.873,1.341c1.432-.988,2.863-1.972,4.448-3.06C116.662,18.637,115.7,18.661,114.772,18.653Z"/><path class="d" d="M125.921,18.666c1.275.842,2.7,1.79,4.129,2.741a10.517,10.517,0,0,0,.72-1.175c-.844-.56-1.664-1.1-2.392-1.578C127.563,18.661,126.715,18.637,125.921,18.666Z"/><path class="a" d="M119.817,5.665a10.09,10.09,0,0,0-1.295.263v4.351L114.978,7.82a8.165,8.165,0,0,0-1.344,1.533c1.2.793,2.374,1.571,3.417,2.258-.8.028-1.65,0-2.47.012l-1.617-1.066a7.927,7.927,0,0,0-.543,1.694,4.33,4.33,0,0,0-.079.62h7.475Z"/><path class="e" d="M119.817,5.665a10.09,10.09,0,0,0-1.295.263v4.351L114.978,7.82a8.165,8.165,0,0,0-1.344,1.533c1.2.793,2.374,1.571,3.417,2.258-.8.028-1.65,0-2.47.012l-1.617-1.066a7.927,7.927,0,0,0-.543,1.694,4.33,4.33,0,0,0-.079.62h7.475Z"/><path class="a" d="M129.5,10.241l-2,1.383c-.929-.008-1.891.016-2.8-.012q1.972-1.358,3.94-2.72a8.307,8.307,0,0,0-.738-.821l-3.186,2.209V6.114a9.532,9.532,0,0,0-1.239-.34v7.1h6.837a3.916,3.916,0,0,0-.087-.62A8.361,8.361,0,0,0,129.5,10.241Z"/><path class="f" d="M129.5,10.241l-2,1.383c-.929-.008-1.891.016-2.8-.012q1.972-1.358,3.94-2.72a8.307,8.307,0,0,0-.738-.821l-3.186,2.209V6.114a9.532,9.532,0,0,0-1.239-.34v7.1h6.837a3.916,3.916,0,0,0-.087-.62A8.361,8.361,0,0,0,129.5,10.241Z"/><path class="b" d="M127.9,8.069a8.6,8.6,0,0,0-3.186-1.956v4.165Z"/><path class="g" d="M127.9,8.069a8.6,8.6,0,0,0-3.186-1.956v4.165Z"/><path class="b" d="M118.522,5.927a8.789,8.789,0,0,0-3.545,1.893l3.545,2.458Z"/><path class="g" d="M118.522,5.927a8.789,8.789,0,0,0-3.545,1.893l3.545,2.458Z"/><path class="d" d="M117.051,11.611c-1.044-.687-2.22-1.465-3.417-2.258a8.022,8.022,0,0,0-.67,1.2l1.617,1.066C115.4,11.615,116.252,11.64,117.051,11.611Z"/><path class="h" d="M117.051,11.611c-1.044-.687-2.22-1.465-3.417-2.258a8.022,8.022,0,0,0-.67,1.2l1.617,1.066C115.4,11.615,116.252,11.64,117.051,11.611Z"/><path class="d" d="M123.473,5.774a10.75,10.75,0,0,0-2.151-.211,11.111,11.111,0,0,0-1.5.1V12.87h-7.475c-.18,3.408,4.333,4.259,8.98,4.259s9.176-1,8.988-4.259h-6.837Z"/><path class="h" d="M123.473,5.774a10.75,10.75,0,0,0-2.151-.211,11.111,11.111,0,0,0-1.5.1V12.87h-7.475c-.18,3.408,4.333,4.259,8.98,4.259s9.176-1,8.988-4.259h-6.837Z"/><path class="d" d="M127.5,11.623l2-1.383a8.351,8.351,0,0,0-.865-1.35q-1.97,1.36-3.94,2.72C125.6,11.64,126.566,11.615,127.5,11.623Z"/><path class="h" d="M127.5,11.623l2-1.383a8.351,8.351,0,0,0-.865-1.35q-1.97,1.36-3.94,2.72C125.6,11.64,126.566,11.615,127.5,11.623Z"/></g></svg>