<svg xmlns="http://www.w3.org/2000/svg" width="21" height="21" viewBox="0 0 21 21"><defs><style>.a{fill:#ffcd00;}.b{fill:#dc241f;}.c{fill:#424242;}.d{fill:#ff241f;}</style></defs><g transform="translate(-57.69 -30.579)"><path class="a" d="M68.19,51.579a10.5,10.5,0,0,0,9.7-6.469H58.493A10.5,10.5,0,0,0,68.19,51.579Z"/><path d="M68.19,30.579a10.5,10.5,0,0,0-9.951,7.151h1.177c.835-3.5,4.052-6.4,8.837-6.4s7.934,2.918,8.832,6.4h1.057A10.5,10.5,0,0,0,68.19,30.579Z"/><path class="b" d="M77.154,38.019c.827,3.754-3.985,4.879-8.9,4.879s-9.685-.951-8.9-4.879c.019-.1.041-.192.064-.288H58.239a10.507,10.507,0,0,0,.254,7.379H77.887a10.506,10.506,0,0,0,.255-7.379H77.084C77.109,37.827,77.133,37.923,77.154,38.019Z"/><path d="M68.253,31.331c-4.786,0-8,2.9-8.837,6.4H77.084C76.187,34.249,73.037,31.331,68.253,31.331Z"/><path class="c" d="M68.253,31.331c-4.786,0-8,2.9-8.837,6.4H77.084C76.187,34.249,73.037,31.331,68.253,31.331Z"/><path class="b" d="M68.253,42.9c4.916,0,9.729-1.124,8.9-4.879-.021-.1-.045-.192-.07-.288H59.415c-.023.1-.045.191-.064.288C58.568,41.946,63.336,42.9,68.253,42.9Z"/><path class="d" d="M68.253,42.9c4.916,0,9.729-1.124,8.9-4.879-.021-.1-.045-.192-.07-.288H59.415c-.023.1-.045.191-.064.288C58.568,41.946,63.336,42.9,68.253,42.9Z"/></g></svg>