<svg xmlns="http://www.w3.org/2000/svg" xmlns:xlink="http://www.w3.org/1999/xlink" width="21" height="21" viewBox="0 0 21 21"><defs><style>.a{fill:url(#a);}.b{fill:#ffcd00;}.c{fill:#dc241f;}.d{fill:#ff241f;}.e{fill:#ff0;}</style><linearGradient id="a" x1="0.5" y1="-0.579" x2="0.5" y2="1" gradientUnits="objectBoundingBox"><stop offset="0" stop-color="#fff"/><stop offset="0.635" stop-color="#fdfdfd"/><stop offset="0.863" stop-color="#f6f6f6"/><stop offset="1" stop-color="#ededed"/></linearGradient></defs><g transform="translate(-4.41 -30.579)"><path class="a" d="M6.114,38.174c-.783,3.927,3.985,4.879,8.9,4.879s9.729-1.124,8.9-4.879a8.352,8.352,0,0,0-.964-2.446H7.045A7.95,7.95,0,0,0,6.114,38.174Z"/><path class="b" d="M6.282,47.061H23.537a10.494,10.494,0,0,0,.406-11.333h-.991a8.352,8.352,0,0,1,.964,2.446c.827,3.754-3.985,4.879-8.9,4.879s-9.685-.952-8.9-4.879a7.95,7.95,0,0,1,.931-2.446H5.876a10.494,10.494,0,0,0,.406,11.333Z"/><path class="c" d="M14.91,51.579A10.485,10.485,0,0,0,23.5,47.113H6.319A10.485,10.485,0,0,0,14.91,51.579Z"/><path class="c" d="M15.015,31.486a8.891,8.891,0,0,1,7.915,4.2h.991a10.5,10.5,0,0,0-18.023,0H7.067A8.918,8.918,0,0,1,15.015,31.486Z"/><path class="b" d="M6.319,47.113H23.5l.037-.052H6.282Z"/><path class="c" d="M15.015,31.486a8.918,8.918,0,0,0-7.948,4.2H22.93A8.891,8.891,0,0,0,15.015,31.486Z"/><path class="d" d="M15.015,31.486a8.918,8.918,0,0,0-7.948,4.2H22.93A8.891,8.891,0,0,0,15.015,31.486Z"/><path class="e" d="M6.114,38.174c-.783,3.927,3.985,4.879,8.9,4.879s9.729-1.124,8.9-4.879a8.352,8.352,0,0,0-.964-2.446H7.045A7.95,7.95,0,0,0,6.114,38.174Z"/></g></svg>